<svg xmlns="http://www.w3.org/2000/svg" viewBox="0 0 256 256" role="img" aria-labelledby="title desc">
  <title id="title">GOI</title>
  <desc id="desc">Gerenciador de Operações Imobiliárias</desc>
  <defs>
    <radialGradient id="red" cx="38%" cy="28%" r="78%">
      <stop offset="0" stop-color="#ff2430"/><stop offset=".34" stop-color="#c60012"/><stop offset=".78" stop-color="#760008"/><stop offset="1" stop-color="#360003"/>
    </radialGradient>
    <linearGradient id="silver" x1="0" y1="0" x2="1" y2="1">
      <stop offset="0" stop-color="#fff"/><stop offset=".35" stop-color="#eef0f2"/><stop offset=".62" stop-color="#9fa5ab"/><stop offset=".82" stop-color="#f9fafb"/><stop offset="1" stop-color="#747a81"/>
    </linearGradient>
    <filter id="shadow" x="-25%" y="-25%" width="150%" height="150%"><feDropShadow dx="0" dy="5" stdDeviation="5" flood-color="#000" flood-opacity=".55"/></filter>
  </defs>
  <circle cx="128" cy="128" r="120" fill="#08090a"/>
  <circle cx="128" cy="128" r="112" fill="none" stroke="#ff1824" stroke-width="8"/>
  <circle cx="128" cy="128" r="103" fill="none" stroke="#d7d9dc" stroke-width="4"/>
  <circle cx="128" cy="128" r="97" fill="url(#red)"/>
  <g filter="url(#shadow)" fill="url(#silver)" stroke="#17181a" stroke-width="4" stroke-linejoin="round">
    <path d="M44 142c0-38 24-63 61-63 16 0 31 5 42 15l-16 19c-7-6-15-9-25-9-20 0-34 14-34 37 0 24 14 38 35 38 10 0 18-2 23-6v-17h-28v-23h55v53c-14 11-31 17-51 17-38 0-62-24-62-61z"/>
    <path d="M153 141c0-37 23-62 58-62 34 0 58 25 58 62 0 38-24 63-58 63-35 0-58-25-58-63zm86 0c0-23-10-37-28-37s-29 14-29 37c0 24 11 38 29 38s28-14 28-38z" transform="translate(-34 0) scale(.82 1)"/>
    <path d="M188 83h27v120h-27z"/>
  </g>
  <path d="M72 88l56-47 56 47" fill="none" stroke="url(#silver)" stroke-width="13" stroke-linecap="round" stroke-linejoin="round"/>
  <rect x="118" y="87" width="20" height="20" rx="2" fill="#fff" stroke="#8e9297" stroke-width="2"/>
  <path d="M91 157h74" stroke="url(#silver)" stroke-width="12" stroke-linecap="round"/>
  <circle cx="185" cy="157" r="25" fill="none" stroke="url(#silver)" stroke-width="11"/>
  <path d="M93 157H76l10 10-10 10" fill="none" stroke="url(#silver)" stroke-width="9" stroke-linecap="round" stroke-linejoin="round"/>
  <text x="128" y="228" text-anchor="middle" font-family="Arial, Helvetica, sans-serif" font-size="17" font-weight="800" fill="#fff">GERENCIADOR DE OPERAÇÕES IMOBILIÁRIAS</text>
</svg>